<?xml version="1.0" standalone="no"?>
<!DOCTYPE svg PUBLIC "-//W3C//DTD SVG 20010904//EN"
 "http://www.w3.org/TR/2001/REC-SVG-20010904/DTD/svg10.dtd">
<svg version="1.0" xmlns="http://www.w3.org/2000/svg"
 width="1609.000000pt" height="1609.000000pt" viewBox="0 0 1609.000000 1609.000000"
 preserveAspectRatio="xMidYMid meet">
<metadata>
Created by potrace 1.14, written by Peter Selinger 2001-2017
</metadata>
<g transform="translate(0.000000,1609.000000) scale(0.100000,-0.100000)"
fill="#000000" stroke="none">
<path d="M7710 15940 c0 -3 -28 -5 -63 -4 -34 0 -70 -4 -81 -9 -14 -7 -16 -6
-11 4 6 8 4 10 -5 4 -7 -4 -38 -10 -69 -12 -31 -2 -78 -5 -106 -7 -27 -2 -50
-5 -50 -6 0 -1 -22 -3 -50 -5 -27 -1 -50 -4 -50 -5 0 -1 -20 -4 -45 -5 -56 -5
-136 -14 -175 -21 -16 -3 -45 -5 -62 -6 -18 0 -33 -3 -33 -7 0 -4 -15 -6 -32
-6 -18 1 -37 -1 -43 -3 -5 -3 -22 -7 -39 -9 -16 -2 -41 -6 -55 -9 -14 -2 -42
-7 -61 -9 -19 -3 -46 -8 -60 -11 -52 -12 -76 -16 -102 -17 -16 0 -28 -4 -28
-9 0 -4 -3 -7 -7 -6 -10 3 -118 -16 -125 -21 -2 -2 -14 -4 -28 -6 -43 -8 -55
-10 -65 -16 -5 -4 -18 -5 -27 -4 -10 2 -18 0 -18 -4 0 -4 -6 -8 -12 -8 -7 0
-24 -3 -38 -6 -14 -3 -34 -8 -45 -10 -11 -3 -40 -10 -65 -17 -25 -7 -52 -14
-60 -15 -8 -2 -15 -4 -15 -5 0 -1 -7 -3 -15 -5 -34 -8 -58 -15 -110 -30 -30
-9 -63 -18 -72 -19 -10 -1 -21 -5 -24 -9 -4 -4 -17 -7 -29 -7 -11 0 -25 -4
-31 -8 -5 -5 -38 -17 -74 -27 -36 -11 -67 -22 -70 -25 -5 -5 -26 -9 -57 -12
-7 -1 -13 -5 -13 -10 0 -4 -3 -7 -7 -6 -5 1 -23 -3 -41 -9 -18 -7 -34 -12 -37
-13 -10 -2 -91 -31 -110 -39 -11 -5 -47 -19 -80 -31 -33 -12 -72 -28 -87 -36
-15 -8 -29 -14 -30 -14 -12 6 -57 -14 -51 -23 4 -6 0 -8 -9 -4 -9 3 -20 1 -24
-3 -5 -5 -18 -11 -29 -13 -11 -2 -50 -18 -87 -35 -36 -18 -68 -32 -71 -32 -2
0 -52 -22 -110 -50 -58 -27 -110 -50 -116 -50 -6 0 -11 -4 -11 -10 0 -5 -6
-10 -13 -10 -8 0 -38 -13 -67 -29 -30 -16 -58 -27 -62 -25 -4 3 -8 1 -8 -4 0
-9 -39 -30 -51 -28 -4 0 -16 -7 -26 -17 -11 -9 -23 -14 -26 -10 -4 3 -7 1 -7
-5 0 -7 -5 -12 -10 -12 -15 0 -264 -140 -272 -154 -4 -6 -8 -7 -8 -3 0 5 -13
-1 -29 -12 -16 -12 -32 -21 -35 -21 -3 0 -25 -13 -49 -30 -25 -16 -50 -30 -56
-30 -6 0 -11 -4 -11 -8 0 -4 -25 -21 -55 -37 -30 -17 -55 -33 -55 -37 0 -5 -4
-8 -10 -8 -11 0 -104 -62 -108 -73 -2 -4 -8 -5 -13 -1 -5 3 -12 -2 -15 -10 -3
-9 -10 -16 -15 -16 -9 0 -65 -36 -79 -50 -3 -3 -25 -19 -50 -35 -25 -17 -50
-34 -56 -40 -6 -5 -22 -17 -34 -25 -12 -8 -28 -21 -36 -27 -7 -7 -17 -13 -23
-13 -6 0 -11 -4 -11 -8 0 -5 -15 -17 -34 -27 -19 -11 -33 -23 -30 -27 3 -4 0
-8 -7 -8 -12 0 -145 -102 -166 -127 -6 -8 -13 -13 -16 -11 -4 3 -28 -18 -91
-76 -17 -16 -31 -28 -31 -26 0 6 -45 -32 -68 -57 -11 -13 -24 -23 -28 -23 -4
0 -28 -19 -53 -42 -24 -24 -84 -79 -132 -123 -120 -110 -351 -341 -456 -455
-90 -99 -104 -115 -178 -201 -25 -29 -55 -63 -67 -76 -13 -13 -23 -28 -23 -32
0 -5 -7 -11 -15 -15 -8 -3 -15 -10 -15 -15 0 -5 -18 -29 -40 -52 -22 -24 -40
-46 -40 -50 0 -3 -10 -17 -22 -31 -44 -49 -214 -276 -268 -359 -8 -12 -23 -30
-32 -40 -9 -9 -14 -20 -10 -23 3 -3 1 -6 -5 -6 -6 0 -16 -13 -23 -30 -7 -16
-16 -30 -21 -30 -4 0 -11 -9 -14 -20 -3 -11 -12 -26 -19 -32 -6 -7 -50 -74
-96 -148 -45 -74 -90 -146 -99 -160 -8 -14 -14 -28 -13 -32 1 -5 -2 -8 -8 -8
-5 0 -10 -7 -10 -15 0 -8 -3 -15 -7 -15 -5 0 -13 -10 -18 -23 -21 -43 -70
-132 -77 -137 -6 -5 -22 -40 -28 -65 -2 -5 -10 -15 -19 -22 -9 -7 -11 -13 -6
-13 6 0 6 -3 0 -8 -9 -6 -178 -336 -181 -352 0 -3 -12 -30 -26 -60 -14 -30
-31 -70 -39 -87 -8 -18 -17 -33 -21 -33 -4 0 -5 -7 -2 -15 4 -8 1 -15 -5 -15
-6 0 -11 -6 -11 -14 0 -12 -28 -83 -65 -161 -7 -16 -11 -33 -9 -37 3 -4 1 -8
-4 -8 -7 0 -23 -40 -37 -90 -1 -3 -7 -16 -13 -30 -20 -46 -102 -282 -102 -296
0 -8 -5 -14 -12 -14 -6 0 -9 -3 -5 -6 3 -3 -1 -23 -8 -45 -8 -21 -12 -39 -8
-39 3 0 0 -7 -7 -15 -7 -9 -13 -23 -14 -33 -1 -9 -13 -51 -26 -92 -25 -81 -29
-96 -32 -122 -1 -10 -7 -18 -12 -18 -5 0 -7 -3 -3 -6 3 -3 1 -18 -5 -33 -6
-14 -12 -42 -15 -61 -2 -19 -7 -37 -11 -40 -4 -3 -8 -14 -10 -25 -6 -47 -11
-71 -20 -95 -5 -14 -10 -29 -11 -35 -1 -9 -13 -73 -16 -85 -1 -3 -5 -16 -8
-30 -4 -14 -9 -36 -11 -50 -6 -34 -25 -129 -31 -160 -3 -14 -8 -36 -10 -50 -3
-14 -10 -47 -15 -75 -5 -27 -12 -68 -15 -90 -8 -62 -13 -90 -14 -90 -1 0 -4
-20 -7 -45 -2 -25 -7 -58 -9 -75 -8 -57 -15 -110 -20 -155 -2 -25 -7 -70 -10
-100 -4 -30 -8 -71 -9 -90 -1 -20 -5 -41 -9 -47 -4 -6 -3 -14 3 -18 6 -4 7
-11 4 -17 -7 -11 -9 -31 -17 -156 -2 -29 -7 -55 -10 -59 -4 -3 -2 -12 4 -19 7
-9 7 -19 0 -33 -14 -25 -14 -34 0 -25 8 4 8 1 1 -12 -11 -22 -10 -53 3 -73 5
-10 4 -12 -4 -7 -17 11 -15 -502 2 -523 9 -12 9 -13 0 -7 -9 5 -12 -2 -10 -26
2 -18 6 -38 10 -45 4 -6 3 -14 -3 -18 -6 -4 -8 -11 -4 -16 3 -6 7 -39 9 -74 1
-34 6 -68 9 -74 4 -6 2 -11 -4 -11 -6 0 -8 -5 -3 -12 4 -7 8 -26 9 -43 0 -16
4 -61 9 -100 4 -38 8 -96 9 -127 0 -32 3 -58 6 -58 3 0 7 -15 8 -32 2 -52 10
-123 12 -123 1 0 3 -11 5 -25 1 -14 5 -43 8 -65 3 -22 9 -65 13 -95 3 -30 11
-63 16 -74 8 -14 7 -17 -4 -10 -10 6 -11 4 -2 -7 5 -8 11 -30 13 -49 2 -19 6
-37 10 -40 3 -3 7 -18 8 -35 3 -57 7 -85 14 -85 4 0 6 -13 5 -30 -1 -16 1 -30
4 -30 3 0 6 -8 6 -17 1 -10 4 -31 9 -48 4 -16 7 -40 8 -52 1 -13 5 -23 10 -23
5 0 7 -9 4 -20 -3 -11 -1 -20 5 -20 5 0 7 -3 4 -8 -2 -4 2 -32 10 -62 21 -77
28 -104 38 -156 2 -11 12 -45 21 -75 9 -30 19 -67 22 -84 3 -16 10 -36 15 -42
6 -7 8 -13 4 -13 -3 0 0 -15 8 -34 8 -19 12 -37 8 -40 -3 -3 0 -6 7 -6 7 0 10
-4 6 -10 -3 -5 1 -25 9 -45 8 -19 13 -35 10 -35 -3 0 1 -10 8 -22 7 -13 11
-28 10 -35 -1 -6 2 -14 8 -18 5 -3 10 -13 10 -22 0 -9 14 -54 31 -101 17 -46
32 -89 34 -96 1 -6 7 -24 13 -39 7 -16 12 -31 12 -35 1 -4 9 -25 20 -47 10
-22 16 -43 14 -47 -3 -5 0 -8 7 -8 7 0 10 -2 7 -6 -5 -4 25 -83 72 -191 6 -13
14 -33 19 -45 5 -13 19 -44 30 -69 12 -25 21 -51 21 -57 0 -7 5 -12 11 -12 6
0 9 -7 5 -15 -3 -8 -1 -15 5 -15 6 0 7 -4 4 -10 -3 -6 -2 -10 3 -10 9 0 24
-40 21 -57 0 -3 6 -10 15 -15 9 -5 16 -15 16 -23 0 -8 17 -47 37 -87 21 -40
36 -76 35 -80 -1 -5 3 -8 9 -8 5 0 7 -4 4 -10 -3 -6 -2 -10 2 -10 5 0 19 -25
32 -55 13 -30 28 -55 33 -55 5 0 7 -4 4 -8 -3 -5 6 -25 19 -45 14 -20 25 -39
25 -42 0 -3 11 -23 25 -45 14 -22 25 -46 25 -55 0 -8 4 -15 8 -15 5 0 17 -18
27 -40 10 -22 21 -40 24 -40 3 0 12 -15 20 -32 8 -18 17 -35 20 -38 10 -9 31
-44 44 -72 6 -16 15 -28 19 -28 4 0 8 -4 8 -9 0 -5 22 -44 50 -85 27 -42 50
-80 50 -86 0 -5 4 -10 8 -10 5 0 15 -12 23 -27 8 -16 22 -37 32 -47 9 -11 17
-25 17 -31 0 -6 9 -17 20 -25 11 -8 20 -20 20 -26 0 -7 7 -20 16 -28 8 -9 12
-16 8 -16 -4 0 3 -8 14 -19 12 -10 22 -21 22 -25 0 -4 13 -24 28 -44 16 -20
64 -84 107 -142 44 -58 84 -110 90 -117 30 -35 35 -43 35 -53 0 -6 4 -8 10 -5
5 3 10 2 10 -2 0 -11 165 -213 187 -231 9 -6 14 -12 10 -12 -3 0 13 -20 36
-45 23 -24 67 -72 97 -107 61 -68 415 -424 502 -503 63 -58 167 -149 218 -191
19 -16 44 -37 55 -47 11 -10 29 -26 40 -36 11 -9 52 -42 90 -72 39 -29 79 -62
90 -72 11 -11 40 -33 65 -50 25 -17 48 -35 51 -40 3 -4 12 -9 20 -10 8 -2 25
-10 38 -19 13 -10 28 -15 33 -12 4 3 8 1 8 -4 0 -4 28 -22 63 -38 34 -16 65
-33 68 -37 3 -5 8 -8 10 -7 5 2 60 -18 79 -28 8 -5 36 -15 63 -23 26 -7 47
-16 47 -20 0 -5 17 -9 53 -10 9 0 17 -4 17 -10 0 -5 9 -9 19 -9 11 0 22 -4 26
-10 3 -5 12 -7 20 -3 8 3 15 0 15 -7 0 -7 6 -10 14 -7 7 3 18 1 23 -4 5 -5 21
-10 36 -11 15 -1 27 -6 27 -10 0 -4 5 -8 11 -8 10 0 61 -22 143 -61 22 -11 46
-19 53 -19 7 0 13 -5 13 -11 0 -5 4 -8 9 -4 5 3 12 1 16 -5 4 -6 11 -8 16 -5
5 4 9 1 9 -4 0 -6 3 -10 8 -9 6 1 46 -15 107 -42 120 -54 286 -120 302 -120 7
0 13 -5 13 -11 0 -6 6 -9 14 -6 7 3 17 2 22 -3 5 -4 47 -23 94 -40 47 -18 114
-43 150 -57 35 -14 69 -26 75 -27 5 -2 27 -10 49 -19 21 -9 44 -17 51 -17 6 0
15 -3 19 -7 3 -4 16 -8 29 -10 12 -2 26 -8 31 -13 6 -6 18 -10 28 -10 10 0 26
-4 36 -9 26 -14 56 -24 66 -22 4 1 13 -2 20 -7 16 -13 189 -67 204 -64 6 2 12
-2 12 -8 0 -5 3 -9 8 -9 4 1 10 0 15 -1 4 -1 12 -4 17 -5 6 -1 11 -3 13 -5 1
-1 15 -4 32 -6 16 -3 32 -8 35 -12 3 -4 14 -9 25 -10 11 -2 48 -13 83 -24 34
-11 70 -21 80 -23 9 -2 19 -4 22 -5 3 -1 8 -2 13 -1 4 0 7 -3 7 -9 0 -5 7 -7
15 -4 8 4 21 2 28 -4 6 -5 20 -8 30 -7 9 2 17 0 17 -5 0 -4 7 -11 16 -14 10
-4 13 -2 8 7 -6 9 -5 9 7 0 8 -6 26 -14 39 -16 14 -2 32 -7 40 -10 20 -8 168
-46 200 -51 14 -3 25 -5 25 -6 0 -3 41 -12 63 -14 12 0 22 -4 22 -7 0 -7 130
-34 148 -31 6 2 12 -1 12 -6 0 -4 16 -9 36 -10 20 -2 44 -7 54 -12 9 -5 34
-11 56 -13 21 -3 46 -8 54 -11 8 -3 29 -7 45 -10 38 -6 81 -15 120 -23 44 -10
56 -11 101 -16 23 -2 46 -7 52 -11 5 -3 29 -8 53 -11 57 -7 84 -12 84 -15 0
-1 18 -3 40 -5 22 -1 40 -4 40 -5 0 -1 9 -4 20 -5 11 -2 40 -6 65 -9 25 -4 64
-9 87 -11 58 -6 91 -12 104 -21 8 -5 9 -3 4 5 -6 10 -3 11 12 2 11 -5 28 -10
39 -9 10 0 39 -2 64 -6 120 -15 204 -24 320 -31 36 -2 65 -4 65 -5 0 -2 153
-12 212 -13 35 -1 63 -6 63 -12 0 -5 5 -3 11 5 8 12 12 12 16 2 4 -10 8 -10
19 -1 8 6 14 8 14 3 0 -5 28 -8 62 -8 38 1 66 -3 70 -10 6 -8 8 -8 8 0 0 6 11
11 25 11 14 0 22 -4 18 -10 -4 -6 -1 -7 8 -1 24 14 51 16 43 2 -6 -10 -4 -11
7 -1 17 16 43 17 33 1 -5 -8 -3 -8 7 -2 21 13 79 13 79 0 0 -8 2 -8 8 0 9 14
45 14 54 0 5 -7 8 -7 8 -1 0 6 45 11 112 13 62 1 121 5 132 8 14 5 16 3 10 -7
-6 -11 -5 -12 7 -2 8 6 25 11 39 10 27 0 195 11 270 19 25 2 65 6 90 9 113 10
217 23 260 31 32 6 109 16 138 17 12 1 22 4 22 7 0 3 13 6 30 6 16 1 37 5 47
9 18 7 72 15 126 18 15 1 27 5 27 9 0 5 3 7 8 6 4 -1 27 2 52 6 25 5 48 8 53
7 4 0 7 3 7 9 0 5 7 7 15 4 8 -4 23 0 32 7 14 12 16 12 8 -1 -7 -12 -6 -13 6
-4 14 11 45 20 108 29 18 3 42 10 52 16 10 5 19 7 19 3 0 -3 7 0 17 7 9 8 18
13 20 11 4 -4 60 7 93 18 14 5 72 23 130 40 58 17 113 35 122 40 10 6 26 10
36 10 10 0 22 3 26 8 4 4 11 7 14 8 4 0 16 4 27 8 75 29 93 34 99 29 3 -4 6
-1 6 6 0 8 7 11 15 7 8 -3 15 -1 15 4 0 6 8 10 18 10 10 0 22 3 26 8 4 4 11 7
14 8 8 1 26 8 99 40 28 12 54 20 57 16 3 -3 6 0 6 6 0 7 7 12 15 12 8 0 30 9
50 20 19 11 35 18 35 15 0 -6 173 78 370 181 30 15 58 33 62 38 4 6 8 7 8 3 0
-5 13 1 29 12 15 11 39 25 52 31 13 6 38 19 54 30 17 11 49 30 73 42 23 12 42
26 42 30 0 4 7 8 15 8 9 0 18 7 21 15 4 8 10 13 14 10 5 -3 15 2 23 10 9 8 18
15 22 15 4 0 12 6 20 13 7 6 36 26 64 42 28 17 51 33 51 38 0 4 7 7 15 7 8 0
15 3 15 8 0 4 18 18 40 32 22 13 40 28 40 32 0 4 6 8 14 8 8 0 21 6 28 13 7 7
29 24 48 37 19 13 37 27 40 30 3 3 25 19 50 35 25 17 50 33 55 37 6 5 39 29
75 55 36 26 70 51 75 56 6 4 37 28 70 53 91 69 126 96 161 127 17 15 34 27 37
27 4 0 19 12 35 27 27 25 116 102 150 128 7 5 30 26 51 45 21 19 71 64 111
100 116 104 430 416 430 428 0 6 8 13 18 16 11 4 25 17 32 31 7 13 17 22 22
19 4 -3 8 0 8 6 0 6 11 22 25 36 14 14 25 29 25 35 0 6 5 7 10 4 6 -3 10 -2
10 3 0 5 12 22 28 38 22 25 106 123 197 233 11 13 26 29 33 37 6 7 12 16 12
21 0 5 9 15 20 23 11 8 20 19 20 24 0 5 11 19 26 32 14 13 22 24 18 24 -4 0 1
7 12 15 10 8 15 15 11 15 -4 0 3 11 17 24 15 13 26 27 26 32 0 5 16 26 35 47
18 20 32 37 29 37 -4 0 29 48 59 85 22 28 127 181 127 186 0 3 11 19 25 35 14
16 25 35 25 42 0 6 4 12 8 12 5 0 14 10 20 22 7 13 22 39 35 59 12 19 35 57
52 85 16 27 33 51 37 52 4 2 8 7 8 12 0 12 73 134 82 138 5 2 6 7 3 12 -3 4 2
13 10 20 8 7 15 16 15 20 0 4 27 56 60 115 50 89 222 428 226 445 0 3 9 23 19
45 10 22 18 43 17 48 -1 4 3 7 8 7 6 0 10 5 10 11 0 9 33 91 75 184 7 17 22
53 33 80 10 28 23 59 27 70 5 11 9 23 10 28 2 4 4 9 5 12 1 3 3 8 5 13 1 4 7
21 14 37 15 37 20 53 22 63 0 4 5 15 11 25 5 10 11 27 13 37 2 11 10 34 18 52
13 28 48 128 53 151 1 4 3 9 4 12 1 3 3 8 5 13 1 4 4 14 7 22 3 8 14 44 24 80
10 36 21 67 24 70 3 3 6 14 7 25 3 27 37 148 45 160 3 6 9 27 12 49 4 21 9 42
12 47 5 8 8 19 19 71 2 13 10 46 17 73 7 28 11 53 10 58 -1 4 1 7 5 7 5 0 9
10 9 23 2 38 10 82 17 94 4 5 8 24 9 42 1 17 5 31 8 31 4 0 6 10 5 23 -1 12 4
39 11 60 10 28 10 37 1 37 -7 0 -8 3 -2 8 6 4 11 12 12 17 1 6 9 51 17 99 9
49 13 93 10 97 -3 5 -1 9 4 9 5 0 10 15 11 33 4 51 9 102 11 102 2 0 4 13 15
100 10 82 16 137 20 190 2 28 6 64 9 80 3 17 6 58 8 93 2 34 7 62 13 62 6 0 6
3 0 8 -9 6 -12 27 -5 35 1 1 3 29 4 62 1 33 5 65 9 72 4 6 1 14 -5 16 -10 4
-9 6 1 6 11 1 11 4 1 16 -7 8 -8 15 -3 15 14 0 14 571 0 589 -8 10 -8 13 -1 8
12 -7 13 81 0 101 -3 5 0 13 6 15 10 4 10 6 1 6 -7 1 -13 6 -13 12 0 5 5 7 12
3 7 -5 8 -3 2 7 -4 8 -9 37 -11 64 -1 28 -5 86 -9 130 -3 44 -7 95 -7 113 0
17 -3 32 -6 32 -3 0 -7 21 -7 48 -2 50 -12 167 -14 167 -1 0 -3 14 -5 30 -4
37 -13 100 -20 140 -2 17 -7 48 -10 70 -3 22 -8 60 -12 85 -3 25 -7 55 -7 68
-1 12 -3 22 -6 22 -3 0 -7 16 -8 37 -2 20 -5 40 -8 45 -3 5 -7 23 -10 41 -4
31 -8 52 -19 100 -3 12 -8 33 -10 47 -2 14 -9 45 -15 70 -6 25 -13 56 -16 70
-3 14 -10 43 -16 65 -6 22 -11 47 -12 55 -2 8 -5 22 -8 30 -4 8 -11 35 -17 60
-7 25 -14 54 -17 65 -3 11 -7 31 -10 44 -3 13 -11 39 -19 57 -7 18 -11 35 -8
38 3 3 0 12 -7 21 -7 8 -9 15 -6 15 4 0 2 8 -3 19 -6 10 -13 33 -16 52 -3 18
-11 39 -17 46 -6 7 -7 13 -3 13 4 0 2 7 -5 15 -6 8 -9 19 -6 24 4 5 2 12 -4
16 -6 4 -8 10 -5 15 3 5 1 11 -5 15 -6 4 -8 10 -5 15 3 5 1 11 -5 15 -6 4 -8
11 -5 16 4 5 1 9 -5 9 -6 0 -8 5 -5 10 4 6 3 16 -2 23 -5 7 -16 32 -23 57 -8
25 -21 61 -29 80 -8 19 -16 40 -17 45 -1 6 -9 29 -18 53 -8 23 -13 42 -10 42
3 0 -2 7 -10 16 -9 8 -16 23 -16 33 0 10 -3 21 -7 25 -5 4 -8 11 -9 14 0 4 -5
18 -11 32 -6 14 -25 59 -41 100 -17 41 -43 102 -58 135 -15 33 -27 63 -26 68
1 4 -2 7 -8 7 -5 0 -10 6 -10 13 0 7 -9 32 -20 55 -11 22 -20 46 -20 52 0 5
-4 10 -10 10 -5 0 -10 5 -10 12 0 15 -102 222 -112 226 -5 2 -8 12 -8 23 0 10
-4 19 -10 19 -5 0 -10 9 -10 20 0 11 -3 20 -8 20 -4 0 -13 15 -21 33 -8 17
-21 40 -29 50 -8 9 -12 17 -8 17 4 0 -1 12 -11 28 -10 15 -28 44 -38 65 -11
20 -23 37 -28 37 -4 0 -5 5 -2 10 3 6 1 10 -4 10 -6 0 -10 3 -9 8 1 4 -9 25
-23 47 -13 22 -23 43 -21 48 1 4 -2 7 -7 7 -5 0 -20 20 -32 45 -12 25 -26 45
-31 45 -4 0 -8 5 -8 10 0 6 -18 38 -40 71 -22 33 -40 65 -40 70 0 5 -4 9 -9 9
-5 0 -13 9 -16 20 -3 11 -12 26 -18 33 -23 25 -57 76 -57 87 0 5 -4 10 -10 10
-5 0 -10 6 -10 14 0 8 -3 16 -8 18 -4 2 -29 35 -56 73 -27 39 -59 82 -70 96
-12 14 -28 36 -36 49 -8 13 -25 34 -37 48 -13 14 -23 29 -23 33 0 4 -11 19
-25 33 -14 14 -25 27 -25 30 0 7 -21 33 -72 90 -21 22 -38 44 -38 49 0 4 -8
15 -17 25 -38 39 -88 97 -86 99 1 1 -15 20 -35 42 -57 61 -92 101 -91 104 3
10 -467 487 -480 487 -5 0 -13 9 -16 20 -3 11 -10 20 -14 20 -5 0 -24 15 -43
33 -78 72 -256 227 -328 286 -14 11 -29 24 -35 29 -5 4 -53 42 -105 82 -52 41
-98 79 -102 85 -4 5 -8 7 -8 3 0 -5 -8 0 -18 10 -10 9 -29 25 -42 35 -14 9
-56 40 -95 68 -38 27 -77 55 -85 62 -31 25 -75 51 -82 49 -5 -1 -8 3 -8 8 0
12 -71 56 -82 52 -5 -1 -8 2 -8 6 0 11 -94 72 -109 72 -7 0 -10 4 -7 9 5 8
-11 16 -37 19 -5 0 -17 10 -27 22 -10 12 -22 21 -27 21 -4 -1 -15 5 -24 13 -9
8 -26 17 -38 21 -12 3 -21 11 -21 17 0 6 -3 8 -6 5 -4 -4 -19 2 -34 13 -16 11
-33 20 -38 20 -6 0 -12 4 -14 8 -4 10 -197 120 -245 141 -18 7 -33 17 -33 23
0 5 -4 6 -10 3 -5 -3 -10 -1 -10 4 0 6 -3 10 -7 9 -8 -2 -84 33 -93 42 -3 3
-25 15 -50 26 -144 68 -186 90 -192 99 -4 6 -8 7 -8 3 0 -4 -17 1 -37 11 -80
41 -185 85 -195 83 -5 -1 -8 3 -8 8 0 5 -3 9 -7 8 -5 -1 -25 6 -47 15 -21 9
-40 17 -42 17 -2 0 -23 9 -47 19 -23 11 -59 24 -79 31 -21 6 -38 16 -38 21 0
6 -3 8 -7 6 -5 -3 -19 0 -33 6 -14 5 -29 11 -35 12 -5 2 -33 12 -61 23 -29 12
-55 18 -58 15 -3 -4 -6 -1 -6 5 0 7 -3 11 -7 10 -5 -1 -23 3 -41 9 -18 7 -36
13 -40 13 -4 1 -22 8 -41 16 -18 8 -37 11 -42 8 -5 -3 -9 -1 -9 4 0 9 -65 28
-82 24 -5 -1 -8 2 -8 8 0 6 -3 9 -7 9 -5 -1 -10 0 -13 1 -3 1 -12 3 -20 5 -23
6 -213 62 -230 69 -8 3 -26 8 -40 10 -57 11 -74 16 -79 23 -3 5 -19 9 -36 10
-16 1 -66 11 -110 23 -44 13 -89 24 -100 25 -11 1 -20 3 -20 4 0 3 -15 6 -60
14 -16 3 -55 11 -85 18 -30 6 -64 13 -75 14 -11 1 -20 3 -20 5 0 1 -11 3 -25
4 -14 2 -39 6 -55 11 -17 4 -41 9 -55 10 -25 3 -66 9 -130 20 -19 4 -48 8 -65
10 -16 3 -43 7 -60 10 -47 8 -128 18 -152 18 -13 1 -23 3 -23 7 0 3 -19 6 -43
6 -23 1 -69 4 -102 8 -33 3 -87 8 -120 12 -33 3 -86 7 -117 8 -32 2 -61 6 -65
9 -3 4 -12 2 -20 -4 -9 -8 -13 -8 -13 -1 0 6 -10 9 -21 7 -12 -2 -31 0 -41 6
-15 8 -19 8 -14 0 9 -14 4 -14 -28 -1 -19 7 -26 6 -26 -3 0 -8 -4 -7 -10 3 -8
12 -10 12 -10 1 0 -10 -3 -11 -14 -2 -10 9 -16 9 -21 1 -4 -7 -11 -8 -19 -1
-12 10 -666 11 -666 1z"/>
</g>
</svg>
